<svg width="36" height="36" viewBox="0 0 36 36" fill="none" xmlns="http://www.w3.org/2000/svg">
<path d="M18 26.6191C22.9043 26.6191 26.9648 22.5586 26.9648 17.6543C26.9648 12.7588 22.8955 8.68945 17.9912 8.68945C13.0957 8.68945 9.03516 12.7588 9.03516 17.6543C9.03516 22.5586 13.1045 26.6191 18 26.6191ZM18 25.125C13.8516 25.125 10.5381 21.8027 10.5381 17.6543C10.5381 13.5146 13.8428 10.1836 17.9912 10.1836C22.1396 10.1836 25.4619 13.5146 25.4707 17.6543C25.4795 21.8027 22.1484 25.125 18 25.125ZM17.8154 19.4736C18.2637 19.4736 18.5273 19.2012 18.5273 18.8496V18.7441C18.5273 18.252 18.8174 17.9443 19.4238 17.54C20.2764 16.9775 20.8828 16.459 20.8828 15.4131C20.8828 13.9453 19.582 13.1631 18.0967 13.1631C16.585 13.1631 15.5918 13.875 15.3457 14.6836C15.3018 14.833 15.2754 14.9736 15.2754 15.123C15.2754 15.5098 15.583 15.7295 15.873 15.7295C16.374 15.7295 16.4531 15.457 16.7344 15.1318C17.0244 14.6484 17.4463 14.3584 18.0352 14.3584C18.835 14.3584 19.3623 14.8066 19.3623 15.4834C19.3623 16.0811 18.9844 16.3711 18.2197 16.8984C17.5869 17.3379 17.1211 17.8037 17.1211 18.665V18.7793C17.1211 19.2451 17.3672 19.4736 17.8154 19.4736ZM17.7979 22.1016C18.3076 22.1016 18.7471 21.6973 18.7471 21.1875C18.7471 20.6689 18.3164 20.2734 17.7979 20.2734C17.2793 20.2734 16.8486 20.6777 16.8486 21.1875C16.8486 21.6885 17.2881 22.1016 17.7979 22.1016Z" fill="#939393"/>
</svg>
