<svg width="12" height="14" viewBox="0 0 12 14" fill="none" xmlns="http://www.w3.org/2000/svg">
<path d="M5.84961 13.0859C6.36914 13.0859 6.72461 12.7236 6.72461 12.1836V4.17871L6.66992 2.69531L8.22852 4.46582L9.78711 6.01074C9.94434 6.1748 10.1562 6.28418 10.416 6.28418C10.8945 6.28418 11.25 5.92871 11.25 5.42969C11.25 5.2041 11.1611 4.98535 10.9766 4.80078L6.49902 0.323242C6.33496 0.145508 6.08887 0.0498047 5.84961 0.0498047C5.61035 0.0498047 5.37109 0.145508 5.2002 0.323242L0.729492 4.80078C0.544922 4.98535 0.456055 5.2041 0.456055 5.42969C0.456055 5.92871 0.811523 6.28418 1.29004 6.28418C1.5498 6.28418 1.75488 6.1748 1.91895 6.01074L3.4707 4.46582L5.03613 2.69531L4.97461 4.17871V12.1836C4.97461 12.7236 5.33008 13.0859 5.84961 13.0859Z" fill="#85DD9B"/>
</svg>
