<svg width="16" height="16" viewBox="0 0 16 16" fill="none" xmlns="http://www.w3.org/2000/svg">
<path fill-rule="evenodd" clip-rule="evenodd" d="M8 0C3.59226 0 0 3.59226 0 8C0 12.4077 3.59226 16 8 16C12.4077 16 16 12.4077 16 8C16 3.59226 12.4077 0 8 0ZM8 14.4516C4.43871 14.4516 1.54839 11.5613 1.54839 8C1.54839 4.43871 4.43871 1.54839 8 1.54839C11.5613 1.54839 14.4516 4.43871 14.4516 8C14.4516 11.5613 11.551 14.4516 8 14.4516ZM8.00025 3.58191C7.3809 3.58191 6.875 4.08771 6.875 4.70707C6.875 5.32642 7.3809 5.83223 8.00025 5.83223C8.61961 5.83223 9.12538 5.32642 9.12538 4.70707C9.11506 4.07739 8.61961 3.58191 8.00025 3.58191ZM7.22581 7.55614C7.22581 7.13291 7.57677 6.78194 8 6.78194C8.42323 6.78194 8.77419 7.13291 8.77419 7.55614V11.5923C8.77419 12.0155 8.42323 12.3665 8 12.3665C7.57677 12.3665 7.22581 12.0155 7.22581 11.5923V7.55614Z" fill="#D9D9D9"/>
</svg>
