<svg width="24" height="24" viewBox="0 0 24 24" fill="none" xmlns="http://www.w3.org/2000/svg">
<path fill-rule="evenodd" clip-rule="evenodd" d="M12 4C7.59226 4 4 7.59226 4 12C4 16.4077 7.59226 20 12 20C16.4077 20 20 16.4077 20 12C20 7.59226 16.4077 4 12 4ZM12 18.4516C8.43871 18.4516 5.54839 15.5613 5.54839 12C5.54839 8.43871 8.43871 5.54839 12 5.54839C15.5613 5.54839 18.4516 8.43871 18.4516 12C18.4516 15.5613 15.551 18.4516 12 18.4516ZM12.0003 7.58191C11.3809 7.58191 10.875 8.08771 10.875 8.70707C10.875 9.32642 11.3809 9.83223 12.0003 9.83223C12.6196 9.83223 13.1254 9.32642 13.1254 8.70707C13.1151 8.07739 12.6196 7.58191 12.0003 7.58191ZM11.2258 11.5561C11.2258 11.1329 11.5768 10.7819 12 10.7819C12.4232 10.7819 12.7742 11.1329 12.7742 11.5561V15.5923C12.7742 16.0155 12.4232 16.3665 12 16.3665C11.5768 16.3665 11.2258 16.0155 11.2258 15.5923V11.5561Z" fill="#D9D9D9"/>
</svg>
