<svg width="24" height="24" viewBox="0 0 24 24" fill="none" xmlns="http://www.w3.org/2000/svg">
<path fill-rule="evenodd" clip-rule="evenodd" d="M16.7596 10.529C16.9127 12.0991 17.0455 12.9398 18.0361 13.5577C18.7715 14.0135 19.1492 14.834 18.945 15.5431C18.8735 15.7963 18.5263 16.6168 17.2089 16.6168H6.79198C5.47455 16.6168 5.12737 15.7963 5.05588 15.5431C4.85163 14.834 5.21917 14.0135 5.9647 13.5577C6.96554 12.9398 7.08809 12.0889 7.24128 10.529C7.29234 10.0023 7.35359 9.41476 7.46593 8.78673C7.89486 6.46709 9.60057 5.24142 11.2346 4.94767V2.75971C11.2346 2.3444 11.5818 2 12.0005 2C12.4193 2 12.7665 2.3444 12.7665 2.75971V4.94767C14.4005 5.24142 16.106 6.46709 16.5349 8.78673C16.6473 9.40463 16.7085 10.0023 16.7596 10.529ZM6.79198 15.1075H17.2089C17.2664 15.1075 17.3175 15.1011 17.362 15.0955C17.3966 15.0911 17.4272 15.0872 17.454 15.0872C17.4233 15.0265 17.3621 14.9252 17.2395 14.8543C15.5544 13.8109 15.4013 12.2915 15.2481 10.6809C15.2461 10.6602 15.244 10.6395 15.242 10.6187C15.1929 10.1213 15.1419 9.60515 15.0439 9.07035C14.6967 7.23692 13.2258 6.39618 12.0105 6.39618C10.785 6.39618 9.3144 7.23692 8.97739 9.07035C8.87935 9.60516 8.82841 10.1213 8.77932 10.6188C8.77727 10.6395 8.77523 10.6602 8.77318 10.6809L8.76975 10.7148C8.6077 12.3128 8.45504 13.8183 6.78176 14.8543C6.65921 14.9252 6.58775 15.0265 6.55711 15.0872C6.60818 15.0974 6.67964 15.1075 6.79198 15.1075ZM14.4616 18.0551C14.2267 19.1694 13.2158 20 12.0005 20C10.7852 20 9.76374 19.1694 9.53906 18.0551H14.4616Z" fill="black"/>
</svg>
