<svg width="24" height="24" viewBox="0 0 24 24" fill="none" xmlns="http://www.w3.org/2000/svg">
<path d="M19.7837 18.7295L16.7502 15.696C17.7547 14.4628 18.3615 12.8914 18.3615 11.1807C18.3615 7.22238 15.1391 4 11.1807 4C7.22235 4 4 7.22238 4 11.1807C4 15.1391 7.22235 18.3615 11.1807 18.3615C12.8913 18.3615 14.4628 17.7548 15.6961 16.7503L18.7295 19.7837C18.8787 19.9329 19.0676 20.0025 19.2565 20.0025C19.4455 20.0025 19.6345 19.9329 19.7837 19.7837C20.0721 19.4953 20.0721 19.0179 19.7837 18.7295ZM5.48189 11.1708C5.48189 8.03792 8.03788 5.4819 11.1707 5.4819C14.3036 5.4819 16.8597 8.03792 16.8597 11.1708C16.8597 14.3037 14.3036 16.8597 11.1707 16.8597C8.03788 16.8597 5.48189 14.3136 5.48189 11.1708Z" fill="black"/>
</svg>
