<svg width="24" height="24" viewBox="0 0 24 24" fill="none" xmlns="http://www.w3.org/2000/svg">
<path d="M17.7477 10.61C17.3622 9.92 16.5913 9.49 15.7322 9.49H13.6726L14.9392 6.23C15.1375 5.72 15.0494 5.15 14.7079 4.71C14.3665 4.27 13.8048 4 13.1991 4C12.6153 4 12.0647 4.25 11.7232 4.68C10.2694 6.48 7.64817 9.73 6.41464 11.31C5.93004 11.94 5.86395 12.75 6.24943 13.44C6.63491 14.13 7.40587 14.55 8.26494 14.55H10.3685L9.11298 17.78C8.91474 18.29 9.00286 18.86 9.34428 19.29C9.6857 19.73 10.2474 20 10.8531 20C11.4369 20 11.9876 19.74 12.34 19.31L17.5605 12.74C18.0671 12.12 18.1442 11.3 17.7477 10.61ZM16.2278 11.87L11.0073 18.44C10.9633 18.49 10.9192 18.51 10.8642 18.51C10.754 18.51 10.6439 18.41 10.6879 18.29L12.6263 13.28C12.6704 13.17 12.5823 13.06 12.4501 13.06H8.27595C7.78034 13.06 7.49398 12.55 7.78033 12.19C9.02488 10.59 11.7673 7.2 13.0669 5.58C13.111 5.53 13.155 5.51 13.2101 5.51C13.3202 5.51 13.4303 5.61 13.3863 5.73L11.4369 10.77C11.3928 10.88 11.4809 10.99 11.6131 10.99H15.7432C16.2388 10.99 16.5252 11.51 16.2278 11.87Z" fill="#0066FF"/>
</svg>
